<mxfile host="app.diagrams.net" modified="2024-03-16T03:06:47.155Z" agent="Mozilla/5.0 (Windows NT 10.0; Win64; x64) AppleWebKit/537.36 (KHTML, like Gecko) Chrome/122.0.0.0 Safari/537.36" etag="ibdtcT6kdimg3N8IgnqH" version="24.0.7" type="github" pages="2">
  <diagram name="Main Blocks" id="n_KYYv9BIPD_4SMAWJG3">
    <mxGraphModel dx="1434" dy="780" grid="1" gridSize="10" guides="1" tooltips="1" connect="1" arrows="1" fold="1" page="1" pageScale="1" pageWidth="850" pageHeight="1100" math="0" shadow="0">
      <root>
        <mxCell id="0" />
        <mxCell id="1" parent="0" />
        <mxCell id="Gm6mC0jStOQM7_BD0a0v-5" value="" style="edgeStyle=orthogonalEdgeStyle;rounded=0;orthogonalLoop=1;jettySize=auto;html=1;" parent="1" source="Gm6mC0jStOQM7_BD0a0v-1" edge="1">
          <mxGeometry relative="1" as="geometry">
            <mxPoint x="310" y="100" as="targetPoint" />
          </mxGeometry>
        </mxCell>
        <mxCell id="Gm6mC0jStOQM7_BD0a0v-1" value="Chat Interface" style="rounded=1;whiteSpace=wrap;html=1;" parent="1" vertex="1">
          <mxGeometry x="100" y="70" width="120" height="60" as="geometry" />
        </mxCell>
        <mxCell id="Gm6mC0jStOQM7_BD0a0v-7" style="edgeStyle=orthogonalEdgeStyle;rounded=0;orthogonalLoop=1;jettySize=auto;html=1;entryX=1;entryY=0.5;entryDx=0;entryDy=0;" parent="1" source="Gm6mC0jStOQM7_BD0a0v-2" target="Gm6mC0jStOQM7_BD0a0v-3" edge="1">
          <mxGeometry relative="1" as="geometry" />
        </mxCell>
        <mxCell id="Gm6mC0jStOQM7_BD0a0v-2" value="Data Source" style="rounded=1;whiteSpace=wrap;html=1;" parent="1" vertex="1">
          <mxGeometry x="520" y="70" width="120" height="60" as="geometry" />
        </mxCell>
        <mxCell id="Gm6mC0jStOQM7_BD0a0v-6" style="edgeStyle=orthogonalEdgeStyle;rounded=0;orthogonalLoop=1;jettySize=auto;html=1;" parent="1" source="Gm6mC0jStOQM7_BD0a0v-3" target="Gm6mC0jStOQM7_BD0a0v-2" edge="1">
          <mxGeometry relative="1" as="geometry" />
        </mxCell>
        <mxCell id="Gm6mC0jStOQM7_BD0a0v-8" value="" style="edgeStyle=orthogonalEdgeStyle;rounded=0;orthogonalLoop=1;jettySize=auto;html=1;" parent="1" source="Gm6mC0jStOQM7_BD0a0v-3" target="Gm6mC0jStOQM7_BD0a0v-1" edge="1">
          <mxGeometry relative="1" as="geometry" />
        </mxCell>
        <mxCell id="Gm6mC0jStOQM7_BD0a0v-3" value="Dynamic Report Generator" style="rounded=1;whiteSpace=wrap;html=1;" parent="1" vertex="1">
          <mxGeometry x="310" y="70" width="120" height="60" as="geometry" />
        </mxCell>
      </root>
    </mxGraphModel>
  </diagram>
  <diagram id="Aj9NmpLaTgbYOVcnJx_2" name="Detailed">
    <mxGraphModel dx="1434" dy="780" grid="1" gridSize="10" guides="1" tooltips="1" connect="1" arrows="1" fold="1" page="1" pageScale="1" pageWidth="850" pageHeight="1100" math="0" shadow="0">
      <root>
        <mxCell id="0" />
        <mxCell id="1" parent="0" />
        <mxCell id="2WwxI37rM4jiReeMQKq--1" value="User Interface" style="swimlane;whiteSpace=wrap;html=1;" parent="1" vertex="1">
          <mxGeometry x="340" y="40" width="130" height="120" as="geometry">
            <mxRectangle x="330" y="40" width="120" height="30" as="alternateBounds" />
          </mxGeometry>
        </mxCell>
        <mxCell id="2WwxI37rM4jiReeMQKq--2" value="website / mobile app" style="text;html=1;align=center;verticalAlign=middle;resizable=0;points=[];autosize=1;strokeColor=none;fillColor=none;" parent="2WwxI37rM4jiReeMQKq--1" vertex="1">
          <mxGeometry y="40" width="130" height="30" as="geometry" />
        </mxCell>
        <mxCell id="2WwxI37rM4jiReeMQKq--3" value="Chat interface" style="text;html=1;align=center;verticalAlign=middle;resizable=0;points=[];autosize=1;strokeColor=none;fillColor=none;" parent="2WwxI37rM4jiReeMQKq--1" vertex="1">
          <mxGeometry x="20" y="78" width="100" height="30" as="geometry" />
        </mxCell>
        <mxCell id="h_HVntr728ZamoSSUk3E-2" value="Natural Language Processor (NLP)" style="rounded=1;whiteSpace=wrap;html=1;" vertex="1" parent="1">
          <mxGeometry x="345" y="210" width="120" height="60" as="geometry" />
        </mxCell>
        <mxCell id="h_HVntr728ZamoSSUk3E-16" value="&lt;font style=&quot;font-size: 14px;&quot;&gt;Data source analyser&lt;/font&gt;" style="swimlane;horizontal=0;whiteSpace=wrap;html=1;" vertex="1" parent="1">
          <mxGeometry x="70" y="320" width="690" height="170" as="geometry" />
        </mxCell>
        <mxCell id="h_HVntr728ZamoSSUk3E-21" style="edgeStyle=orthogonalEdgeStyle;rounded=0;orthogonalLoop=1;jettySize=auto;html=1;" edge="1" parent="h_HVntr728ZamoSSUk3E-16" source="h_HVntr728ZamoSSUk3E-13" target="h_HVntr728ZamoSSUk3E-20">
          <mxGeometry relative="1" as="geometry" />
        </mxCell>
        <mxCell id="h_HVntr728ZamoSSUk3E-13" value="&amp;nbsp; &amp;nbsp; &amp;nbsp; &amp;nbsp;Identify Data&amp;nbsp; &amp;nbsp; &amp;nbsp; &amp;nbsp; &amp;nbsp; &amp;nbsp; &amp;nbsp; &amp;nbsp;sources needed&amp;nbsp; &amp;nbsp; &amp;nbsp; for this&amp;nbsp;" style="shape=step;perimeter=stepPerimeter;whiteSpace=wrap;html=1;fixedSize=1;" vertex="1" parent="h_HVntr728ZamoSSUk3E-16">
          <mxGeometry x="310" y="50" width="120" height="80" as="geometry" />
        </mxCell>
        <mxCell id="h_HVntr728ZamoSSUk3E-11" value="&amp;nbsp; &amp;nbsp;Understand data points needed" style="shape=step;perimeter=stepPerimeter;whiteSpace=wrap;html=1;fixedSize=1;" vertex="1" parent="h_HVntr728ZamoSSUk3E-16">
          <mxGeometry x="130" y="50" width="120" height="80" as="geometry" />
        </mxCell>
        <mxCell id="h_HVntr728ZamoSSUk3E-14" style="edgeStyle=orthogonalEdgeStyle;rounded=0;orthogonalLoop=1;jettySize=auto;html=1;" edge="1" parent="h_HVntr728ZamoSSUk3E-16" source="h_HVntr728ZamoSSUk3E-11" target="h_HVntr728ZamoSSUk3E-13">
          <mxGeometry relative="1" as="geometry" />
        </mxCell>
        <mxCell id="h_HVntr728ZamoSSUk3E-54" style="edgeStyle=orthogonalEdgeStyle;rounded=0;orthogonalLoop=1;jettySize=auto;html=1;" edge="1" parent="h_HVntr728ZamoSSUk3E-16" source="h_HVntr728ZamoSSUk3E-20">
          <mxGeometry relative="1" as="geometry">
            <mxPoint x="660" as="targetPoint" />
          </mxGeometry>
        </mxCell>
        <mxCell id="h_HVntr728ZamoSSUk3E-20" value="&amp;nbsp; &amp;nbsp; &amp;nbsp; &amp;nbsp; Fetch report from&amp;nbsp; &amp;nbsp; &amp;nbsp; &amp;nbsp; &amp;nbsp; &amp;nbsp; &amp;nbsp; engine by passing&amp;nbsp; &amp;nbsp; &amp;nbsp; &amp;nbsp; &amp;nbsp; the report parameters" style="shape=step;perimeter=stepPerimeter;whiteSpace=wrap;html=1;fixedSize=1;" vertex="1" parent="h_HVntr728ZamoSSUk3E-16">
          <mxGeometry x="490" y="50" width="147" height="80" as="geometry" />
        </mxCell>
        <mxCell id="h_HVntr728ZamoSSUk3E-18" value="Data API&amp;nbsp;" style="swimlane;horizontal=0;whiteSpace=wrap;html=1;fillColor=#ffe6cc;strokeColor=#d79b00;" vertex="1" parent="1">
          <mxGeometry x="70" y="840" width="700" height="230" as="geometry" />
        </mxCell>
        <mxCell id="h_HVntr728ZamoSSUk3E-22" value="" style="shape=cylinder3;whiteSpace=wrap;html=1;boundedLbl=1;backgroundOutline=1;size=15;" vertex="1" parent="h_HVntr728ZamoSSUk3E-18">
          <mxGeometry x="90" y="103.5" width="60" height="80" as="geometry" />
        </mxCell>
        <mxCell id="h_HVntr728ZamoSSUk3E-24" value="" style="shape=cylinder3;whiteSpace=wrap;html=1;boundedLbl=1;backgroundOutline=1;size=15;" vertex="1" parent="h_HVntr728ZamoSSUk3E-18">
          <mxGeometry x="295" y="97.5" width="60" height="80" as="geometry" />
        </mxCell>
        <mxCell id="h_HVntr728ZamoSSUk3E-23" value="" style="shape=cylinder3;whiteSpace=wrap;html=1;boundedLbl=1;backgroundOutline=1;size=15;" vertex="1" parent="h_HVntr728ZamoSSUk3E-18">
          <mxGeometry x="480" y="86.5" width="60" height="80" as="geometry" />
        </mxCell>
        <mxCell id="h_HVntr728ZamoSSUk3E-25" value="NoSQL data sources (Mongo, Firebase, DynamoDB,&amp;nbsp; &amp;nbsp;Streamlit)" style="text;html=1;align=center;verticalAlign=middle;resizable=0;points=[];autosize=1;strokeColor=none;fillColor=none;" vertex="1" parent="h_HVntr728ZamoSSUk3E-18">
          <mxGeometry x="205" y="190" width="360" height="30" as="geometry" />
        </mxCell>
        <mxCell id="h_HVntr728ZamoSSUk3E-36" value="" style="edgeStyle=orthogonalEdgeStyle;rounded=0;orthogonalLoop=1;jettySize=auto;html=1;" edge="1" parent="h_HVntr728ZamoSSUk3E-18" source="h_HVntr728ZamoSSUk3E-26">
          <mxGeometry relative="1" as="geometry">
            <mxPoint x="325" y="96.5" as="targetPoint" />
          </mxGeometry>
        </mxCell>
        <mxCell id="h_HVntr728ZamoSSUk3E-37" style="edgeStyle=orthogonalEdgeStyle;rounded=0;orthogonalLoop=1;jettySize=auto;html=1;" edge="1" parent="h_HVntr728ZamoSSUk3E-18" source="h_HVntr728ZamoSSUk3E-26">
          <mxGeometry relative="1" as="geometry">
            <mxPoint x="510" y="96.5" as="targetPoint" />
          </mxGeometry>
        </mxCell>
        <mxCell id="h_HVntr728ZamoSSUk3E-26" value="Load balancer" style="rounded=1;whiteSpace=wrap;html=1;" vertex="1" parent="h_HVntr728ZamoSSUk3E-18">
          <mxGeometry x="180" y="46.5" width="290" height="20" as="geometry" />
        </mxCell>
        <mxCell id="h_HVntr728ZamoSSUk3E-34" style="edgeStyle=orthogonalEdgeStyle;rounded=0;orthogonalLoop=1;jettySize=auto;html=1;entryX=0.5;entryY=0;entryDx=0;entryDy=0;entryPerimeter=0;" edge="1" parent="h_HVntr728ZamoSSUk3E-18" source="h_HVntr728ZamoSSUk3E-26">
          <mxGeometry relative="1" as="geometry">
            <mxPoint x="120" y="106.5" as="targetPoint" />
          </mxGeometry>
        </mxCell>
        <mxCell id="h_HVntr728ZamoSSUk3E-19" value="Secure cloud zone" style="text;html=1;align=center;verticalAlign=middle;whiteSpace=wrap;rounded=0;fillColor=#ffe6cc;strokeColor=#d79b00;" vertex="1" parent="1">
          <mxGeometry x="130" y="810" width="140" height="30" as="geometry" />
        </mxCell>
        <mxCell id="h_HVntr728ZamoSSUk3E-33" value="" style="endArrow=classic;startArrow=classic;html=1;rounded=0;entryX=0.5;entryY=1;entryDx=0;entryDy=0;" edge="1" parent="1" target="h_HVntr728ZamoSSUk3E-20">
          <mxGeometry width="50" height="50" relative="1" as="geometry">
            <mxPoint x="634" y="580" as="sourcePoint" />
            <mxPoint x="404.5" y="490" as="targetPoint" />
          </mxGeometry>
        </mxCell>
        <mxCell id="h_HVntr728ZamoSSUk3E-41" value="" style="endArrow=classic;startArrow=classic;html=1;rounded=0;" edge="1" parent="1">
          <mxGeometry width="50" height="50" relative="1" as="geometry">
            <mxPoint x="405" y="320" as="sourcePoint" />
            <mxPoint x="405" y="269" as="targetPoint" />
          </mxGeometry>
        </mxCell>
        <mxCell id="h_HVntr728ZamoSSUk3E-42" value="" style="endArrow=classic;startArrow=classic;html=1;rounded=0;" edge="1" parent="1">
          <mxGeometry width="50" height="50" relative="1" as="geometry">
            <mxPoint x="390" y="210" as="sourcePoint" />
            <mxPoint x="390" y="160" as="targetPoint" />
          </mxGeometry>
        </mxCell>
        <mxCell id="h_HVntr728ZamoSSUk3E-43" value="&lt;font style=&quot;font-size: 13px;&quot;&gt;Report Generating service&lt;/font&gt;" style="swimlane;horizontal=0;whiteSpace=wrap;html=1;" vertex="1" parent="1">
          <mxGeometry x="60" y="570" width="690" height="220" as="geometry" />
        </mxCell>
        <mxCell id="h_HVntr728ZamoSSUk3E-44" value="Microservice for generating report data (streamlit, firebase)" style="text;html=1;align=center;verticalAlign=middle;resizable=0;points=[];autosize=1;strokeColor=none;fillColor=none;" vertex="1" parent="h_HVntr728ZamoSSUk3E-43">
          <mxGeometry x="120" y="20" width="340" height="30" as="geometry" />
        </mxCell>
        <mxCell id="h_HVntr728ZamoSSUk3E-48" value="" style="edgeStyle=orthogonalEdgeStyle;rounded=0;orthogonalLoop=1;jettySize=auto;html=1;" edge="1" parent="h_HVntr728ZamoSSUk3E-43" source="h_HVntr728ZamoSSUk3E-45" target="h_HVntr728ZamoSSUk3E-47">
          <mxGeometry relative="1" as="geometry" />
        </mxCell>
        <mxCell id="h_HVntr728ZamoSSUk3E-45" value="&amp;nbsp; &amp;nbsp; Check user authorization&amp;nbsp; &amp;nbsp; &amp;nbsp; &amp;nbsp; &amp;nbsp; &amp;nbsp; &amp;nbsp; for&amp;nbsp; viewing the&amp;nbsp; requested&amp;nbsp; data points" style="shape=step;perimeter=stepPerimeter;whiteSpace=wrap;html=1;fixedSize=1;" vertex="1" parent="h_HVntr728ZamoSSUk3E-43">
          <mxGeometry x="80" y="80" width="170" height="100" as="geometry" />
        </mxCell>
        <mxCell id="h_HVntr728ZamoSSUk3E-52" value="" style="edgeStyle=orthogonalEdgeStyle;rounded=0;orthogonalLoop=1;jettySize=auto;html=1;" edge="1" parent="h_HVntr728ZamoSSUk3E-43" source="h_HVntr728ZamoSSUk3E-47" target="h_HVntr728ZamoSSUk3E-51">
          <mxGeometry relative="1" as="geometry" />
        </mxCell>
        <mxCell id="h_HVntr728ZamoSSUk3E-47" value="Fetch data from corresponding data sources" style="shape=step;perimeter=stepPerimeter;whiteSpace=wrap;html=1;fixedSize=1;" vertex="1" parent="h_HVntr728ZamoSSUk3E-43">
          <mxGeometry x="310" y="80" width="140" height="100" as="geometry" />
        </mxCell>
        <mxCell id="h_HVntr728ZamoSSUk3E-50" value="" style="endArrow=classic;startArrow=classic;html=1;rounded=0;exitX=0.655;exitY=0.175;exitDx=0;exitDy=0;exitPerimeter=0;" edge="1" parent="h_HVntr728ZamoSSUk3E-43" source="h_HVntr728ZamoSSUk3E-26">
          <mxGeometry width="50" height="50" relative="1" as="geometry">
            <mxPoint x="330" y="230" as="sourcePoint" />
            <mxPoint x="380" y="180" as="targetPoint" />
          </mxGeometry>
        </mxCell>
        <mxCell id="h_HVntr728ZamoSSUk3E-53" style="edgeStyle=orthogonalEdgeStyle;rounded=0;orthogonalLoop=1;jettySize=auto;html=1;" edge="1" parent="h_HVntr728ZamoSSUk3E-43" source="h_HVntr728ZamoSSUk3E-51">
          <mxGeometry relative="1" as="geometry">
            <mxPoint x="650" as="targetPoint" />
          </mxGeometry>
        </mxCell>
        <mxCell id="h_HVntr728ZamoSSUk3E-51" value="Generate the requested report" style="shape=step;perimeter=stepPerimeter;whiteSpace=wrap;html=1;fixedSize=1;" vertex="1" parent="h_HVntr728ZamoSSUk3E-43">
          <mxGeometry x="510" y="90" width="120" height="80" as="geometry" />
        </mxCell>
      </root>
    </mxGraphModel>
  </diagram>
</mxfile>
